<svg width="34" height="30" viewBox="0 0 34 30" fill="none" xmlns="http://www.w3.org/2000/svg">
<path d="M27 13.3333C27 11.735 25.8667 10.3983 24.365 10.0767C24.965 9.075 25.3333 7.91667 25.3333 6.66667C25.3333 2.99 22.3433 0 18.6667 0C16.1383 0 13.965 1.42833 12.8333 3.50667C11.7017 1.42833 9.52834 0 7.00001 0C3.32334 0 0.333344 2.99 0.333344 6.66667C0.333344 8.17 0.853343 9.545 1.69501 10.66C1.27432 10.9676 0.931883 11.3699 0.695344 11.8343C0.458805 12.2987 0.3348 12.8122 0.333344 13.3333V26.6667C0.333344 28.505 1.82834 30 3.66668 30H23.6667C25.505 30 27 28.505 27 26.6667V22.27L33.6667 25.6033V13.9367L27 17.27V13.3333ZM18.6667 3.33333C20.505 3.33333 22 4.82833 22 6.66667C22 8.505 20.505 10 18.6667 10C16.8283 10 15.3333 8.505 15.3333 6.66667C15.3333 4.82833 16.8283 3.33333 18.6667 3.33333ZM7.00001 3.33333C8.83834 3.33333 10.3333 4.82833 10.3333 6.66667C10.3333 8.505 8.83834 10 7.00001 10C5.16168 10 3.66668 8.505 3.66668 6.66667C3.66668 4.82833 5.16168 3.33333 7.00001 3.33333ZM3.66668 26.6667V13.3333H23.6667L23.67 26.6667H3.66668Z" fill="#247BA0"/>
</svg>
