<svg width="22" height="38" viewBox="0 0 22 38" fill="none" xmlns="http://www.w3.org/2000/svg">
<path d="M1.25751 1.80751C0.956225 2.10818 0.717196 2.46532 0.554106 2.85848C0.391016 3.25164 0.307068 3.67311 0.307068 4.09876C0.307068 4.52441 0.391016 4.94588 0.554106 5.33904C0.717196 5.7322 0.956225 6.08934 1.25751 6.39001L13.8675 19L1.25751 31.61C0.649834 32.2177 0.308444 33.0419 0.308444 33.9013C0.308444 34.7606 0.649834 35.5848 1.25751 36.1925C1.86519 36.8002 2.68938 37.1416 3.54876 37.1416C4.40815 37.1416 5.23233 36.8002 5.84001 36.1925L20.7575 21.275C21.0588 20.9743 21.2978 20.6172 21.4609 20.224C21.624 19.8309 21.708 19.4094 21.708 18.9838C21.708 18.5581 21.624 18.1366 21.4609 17.7435C21.2978 17.3503 21.0588 16.9932 20.7575 16.6925L5.84001 1.77501C4.60501 0.54001 2.52501 0.540011 1.25751 1.80751Z" fill="white"/>
</svg>
